# xmcd
#
# Track frame offsets:
#	150
#	16156
#	28268
#	45018
#	57376
#	70978
#	85048
#	99268
#	110916
#	120888
#
# Disc length: 1768
#
# Revision: 2
# Processed by: cddbd v1.5.1PL0 Copyright (c) Steve Scherf et al.
# Submitted via: CDex 1.40Beta9
# Normalized: r0:DSETVAR1,TDELIM( - ),TSWAP
#
DISCID=7306e60a
DTITLE=Various Artist - Country Love
DYEAR=1999
DGENRE=Country
TTITLE0=Johnny Lee - Looking For Love
TTITLE1=Donna Fargo - Funny Face
TTITLE2=Ray Price - You're The Best Thing That Ever Happened To Me
TTITLE3=Jeanne Pruell - Satin Sheets
TTITLE4=David Houston - Almost Persuaded
TTITLE5=Barbara Fairchild - Teddy Bear Song
TTITLE6=Jack Greene - You Are My Treasure
TTITLE7=Sammi Smith - Help Me Make It Through The Night
TTITLE8=Hank Locklin - Please Help Me, I'm Falling
TTITLE9=Lynn Anderson - You're My Man
EXTD=YEAR: 1999 ID3G: 2
EXTT0=
EXTT1=
EXTT2=
EXTT3=
EXTT4=
EXTT5=
EXTT6=
EXTT7=
EXTT8=
EXTT9=
PLAYORDER=
